<?xml version="1.0" encoding="us-ascii" standalone="no"?><svg xmlns="http://www.w3.org/2000/svg" xmlns:xlink="http://www.w3.org/1999/xlink" contentStyleType="text/css" height="248px" preserveAspectRatio="none" style="width:879px;height:248px;background:#FFFFFF;" version="1.1" viewBox="0 0 879 248" width="879px" zoomAndPan="magnify"><defs/><g><!--cluster User Authentication System--><g id="cluster_User Authentication System"><path d="M137.5,6 L367.5,6 A3.75,3.75 0 0 1 370,8.5 L377,28.2969 L658.5,28.2969 A2.5,2.5 0 0 1 661,30.7969 L661,238.5 A2.5,2.5 0 0 1 658.5,241 L137.5,241 A2.5,2.5 0 0 1 135,238.5 L135,8.5 A2.5,2.5 0 0 1 137.5,6 " fill="none" style="stroke:#000000;stroke-width:1.5;"/><line style="stroke:#000000;stroke-width:1.5;" x1="135" x2="377" y1="28.2969" y2="28.2969"/><text fill="#000000" font-family="sans-serif" font-size="14" font-weight="bold" lengthAdjust="spacing" textLength="229" x="139" y="20.9951">User Authentication System</text></g><g id="elem_UC1"><ellipse cx="214.3925" cy="133.0785" fill="#F1F1F1" rx="63.3925" ry="15.0785" style="stroke:#181818;stroke-width:0.5;"/><text fill="#000000" font-family="sans-serif" font-size="14" lengthAdjust="spacing" textLength="74" x="174.3925" y="136.8261">Login User</text></g><g id="elem_UC2"><ellipse cx="554.5567" cy="62.0113" fill="#F1F1F1" rx="90.5567" ry="20.5113" style="stroke:#181818;stroke-width:0.5;"/><text fill="#000000" font-family="sans-serif" font-size="14" lengthAdjust="spacing" textLength="143" x="483.0567" y="64.858">Verify User by Email</text></g><g id="elem_UC3"><ellipse cx="554.5591" cy="136.1118" fill="#F1F1F1" rx="78.5591" ry="18.1118" style="stroke:#181818;stroke-width:0.5;"/><text fill="#000000" font-family="sans-serif" font-size="14" lengthAdjust="spacing" textLength="115" x="494.8328" y="139.6525">Check Password</text></g><g id="elem_UC4"><ellipse cx="554.3844" cy="206.9769" fill="#F1F1F1" rx="75.3844" ry="17.4769" style="stroke:#181818;stroke-width:0.5;"/><text fill="#000000" font-family="sans-serif" font-size="14" lengthAdjust="spacing" textLength="107" x="497.8844" y="210.7244">Create Session</text></g><!--entity User--><g id="elem_User"><ellipse cx="21.5" cy="103.5" fill="#F1F1F1" rx="8" ry="8" style="stroke:#181818;stroke-width:0.5;"/><path d="M21.5,111.5 L21.5,138.5 M8.5,119.5 L34.5,119.5 M21.5,138.5 L8.5,153.5 M21.5,138.5 L34.5,153.5 " fill="none" style="stroke:#181818;stroke-width:0.5;"/><text fill="#000000" font-family="sans-serif" font-size="14" lengthAdjust="spacing" textLength="31" x="6" y="167.9951">User</text></g><g id="elem_GMN12"><path d="M708.5,41 L708.5,57.345 L645.109,61.616 L708.5,65.345 L708.5,81.2656 A0,0 0 0 0 708.5,81.2656 L871.5,81.2656 A0,0 0 0 0 871.5,81.2656 L871.5,51 L861.5,41 L708.5,41 A0,0 0 0 0 708.5,41 " fill="#FEFFDD" style="stroke:#181818;stroke-width:0.5;"/><path d="M861.5,41 L861.5,51 L871.5,51 L861.5,41 " fill="#FEFFDD" style="stroke:#181818;stroke-width:0.5;"/><text fill="#000000" font-family="sans-serif" font-size="13" lengthAdjust="spacing" textLength="142" x="714.5" y="58.0669">Utilizes UserService to</text><text fill="#000000" font-family="sans-serif" font-size="13" lengthAdjust="spacing" textLength="128" x="714.5" y="73.1997">retrieve user details</text></g><g id="elem_GMN15"><path d="M711,116 L711,132 L633.252,136 L711,140 L711,156.2656 A0,0 0 0 0 711,156.2656 L869,156.2656 A0,0 0 0 0 869,156.2656 L869,126 L859,116 L711,116 A0,0 0 0 0 711,116 " fill="#FEFFDD" style="stroke:#181818;stroke-width:0.5;"/><path d="M859,116 L859,126 L869,126 L859,116 " fill="#FEFFDD" style="stroke:#181818;stroke-width:0.5;"/><text fill="#000000" font-family="sans-serif" font-size="13" lengthAdjust="spacing" textLength="100" x="717" y="133.0669">Uses BCrypt for</text><text fill="#000000" font-family="sans-serif" font-size="13" lengthAdjust="spacing" textLength="137" x="717" y="148.1997">password verification</text></g><g id="elem_GMN18"><path d="M708,191 L708,205.6109 L630.023,208.2766 L708,213.6109 L708,231.2656 A0,0 0 0 0 708,231.2656 L872,231.2656 A0,0 0 0 0 872,231.2656 L872,201 L862,191 L708,191 A0,0 0 0 0 708,191 " fill="#FEFFDD" style="stroke:#181818;stroke-width:0.5;"/><path d="M862,191 L862,201 L872,201 L862,191 " fill="#FEFFDD" style="stroke:#181818;stroke-width:0.5;"/><text fill="#000000" font-family="sans-serif" font-size="13" lengthAdjust="spacing" textLength="143" x="714" y="208.0669">AuthService is used to</text><text fill="#000000" font-family="sans-serif" font-size="13" lengthAdjust="spacing" textLength="136" x="714" y="223.1997">create a new session</text></g><!--link User to UC1--><g id="link_User_UC1"><path d="M37.1703,133 C61.1925,133 104.278,133 144.574,133 " fill="none" id="User-to-UC1" style="stroke:#181818;stroke-width:1.0;"/><polygon fill="#181818" points="150.574,133,141.574,129,145.574,133,141.574,137,150.574,133" style="stroke:#181818;stroke-width:1.0;"/><text fill="#000000" font-family="sans-serif" font-size="13" lengthAdjust="spacing" textLength="50" x="68" y="129.0669">initiates</text></g><!--link UC1 to UC2--><g id="link_UC1_UC2"><path d="M255.395,121.48 C271.641,116.982 290.647,111.964 308,108 C365.81,94.793 425.9996,83.5973 475.0376,75.0753 " fill="none" id="UC1-to-UC2" style="stroke:#181818;stroke-width:1.0;"/><polygon fill="#181818" points="480.949,74.048,471.397,71.648,476.0228,74.9041,472.7668,79.5299,480.949,74.048" style="stroke:#181818;stroke-width:1.0;"/><text fill="#000000" font-family="sans-serif" font-size="13" lengthAdjust="spacing" textLength="113" x="314.5" y="79.0669">verifies existence</text></g><!--link UC1 to UC3--><g id="link_UC1_UC3"><path d="M278.283,133.557 C334.125,134.053 409.9862,134.7257 469.9122,135.2577 " fill="none" id="UC1-to-UC3" style="stroke:#181818;stroke-width:1.0;"/><polygon fill="#181818" points="475.912,135.311,466.9479,131.2313,470.9122,135.2666,466.8768,139.2309,475.912,135.311" style="stroke:#181818;stroke-width:1.0;"/><text fill="#000000" font-family="sans-serif" font-size="13" lengthAdjust="spacing" textLength="124" x="309" y="129.0669">validates password</text></g><!--link UC1 to UC4--><g id="link_UC1_UC4"><path d="M254.475,144.711 C270.916,149.454 290.311,154.792 308,159 C370.846,173.9504 437.6388,186.6761 487.5218,195.6003 " fill="none" id="UC1-to-UC4" style="stroke:#181818;stroke-width:1.0;"/><polygon fill="#181818" points="493.428,196.6569,485.2731,191.1345,488.5061,195.7764,483.8642,199.0094,493.428,196.6569" style="stroke:#181818;stroke-width:1.0;"/><text fill="#000000" font-family="sans-serif" font-size="13" lengthAdjust="spacing" textLength="102" x="320" y="155.0669">initiates session</text></g><!--SRC=[VL6nJaCn3Dpp5LOd63hGTc90WegD0QagUyZpQorUayfsMnw8VyTkNb4B4fcItFbyPtVOAcW1fjLQeI76f5HoY4aBmrAG8GgC_38AOHlJMrnXVSFzJjUObLBq4bZqehWPmMS0Epl150NXwgciA1-LhbrgER-vn5-GgUrhgzSU7ZUHke4vkMJErvZUu3cA70et0sVwYyCO5M618kPfuCp2LmZ71kFndJk0Mw1CIaOLG-oZ0XC3zkw7K03VoGBbX6U4gHDYHurNmdQmSaQOdKk3L1iXv6AcwenBEoHRAdNqOIntja3UKq9RXI6CoeHxz5WC3QgDH0Bc1bpdhvhFm4G47kRSRnNQmlPpSZSagblwHsLcDRxIanKIxzzKIwdEDKB6mq-iazOt]--></g></svg>