<?xml version="1.0" encoding="us-ascii" standalone="no"?><svg xmlns="http://www.w3.org/2000/svg" xmlns:xlink="http://www.w3.org/1999/xlink" contentStyleType="text/css" height="416px" preserveAspectRatio="none" style="width:1097px;height:416px;background:#FFFFFF;" version="1.1" viewBox="0 0 1097 416" width="1097px" zoomAndPan="magnify"><defs/><g><!--cluster User Registration System--><g id="cluster_User Registration System"><path d="M137.5,6 L346.5,6 A3.75,3.75 0 0 1 349,8.5 L356,28.2969 L841.5,28.2969 A2.5,2.5 0 0 1 844,30.7969 L844,406.5 A2.5,2.5 0 0 1 841.5,409 L137.5,409 A2.5,2.5 0 0 1 135,406.5 L135,8.5 A2.5,2.5 0 0 1 137.5,6 " fill="none" style="stroke:#000000;stroke-width:1.5;"/><line style="stroke:#000000;stroke-width:1.5;" x1="135" x2="356" y1="28.2969" y2="28.2969"/><text fill="#000000" font-family="sans-serif" font-size="14" font-weight="bold" lengthAdjust="spacing" textLength="208" x="139" y="20.9951">User Registration System</text></g><g id="elem_UC1"><ellipse cx="222.1781" cy="222.1356" fill="#F1F1F1" rx="71.1781" ry="16.6356" style="stroke:#181818;stroke-width:0.5;"/><text fill="#000000" font-family="sans-serif" font-size="14" lengthAdjust="spacing" textLength="96" x="171.1781" y="225.8832">Register User</text></g><g id="elem_UC2"><ellipse cx="700.5638" cy="370.8128" fill="#F1F1F1" rx="94.5638" ry="21.3128" style="stroke:#181818;stroke-width:0.5;"/><text fill="#000000" font-family="sans-serif" font-size="14" lengthAdjust="spacing" textLength="152" x="624.5638" y="373.6594">Verify User Existence</text></g><g id="elem_UC3"><ellipse cx="700.7198" cy="297.244" fill="#F1F1F1" rx="74.2198" ry="17.244" style="stroke:#181818;stroke-width:0.5;"/><text fill="#000000" font-family="sans-serif" font-size="14" lengthAdjust="spacing" textLength="104" x="645.7198" y="300.9915">Hash Password</text></g><g id="elem_UC4"><ellipse cx="700.3142" cy="56.7628" fill="#F1F1F1" rx="66.8142" ry="15.7628" style="stroke:#181818;stroke-width:0.5;"/><text fill="#000000" font-family="sans-serif" font-size="14" lengthAdjust="spacing" textLength="84" x="655.3142" y="60.5104">Create User</text></g><g id="elem_UC5"><ellipse cx="700.3631" cy="135.8726" fill="#F1F1F1" rx="127.3631" ry="27.8726" style="stroke:#181818;stroke-width:0.5;"/><text fill="#000000" font-family="sans-serif" font-size="14" lengthAdjust="spacing" textLength="223" x="588.8631" y="138.7193">Generate Login-via-Email Code</text></g><g id="elem_UC6"><ellipse cx="700.3371" cy="222.1674" fill="#F1F1F1" rx="101.3371" ry="22.6674" style="stroke:#181818;stroke-width:0.5;"/><text fill="#000000" font-family="sans-serif" font-size="14" lengthAdjust="spacing" textLength="167" x="616.8371" y="225.0141">Send Verification Email</text></g><!--entity User--><g id="elem_User"><ellipse cx="21.5" cy="192.5" fill="#F1F1F1" rx="8" ry="8" style="stroke:#181818;stroke-width:0.5;"/><path d="M21.5,200.5 L21.5,227.5 M8.5,208.5 L34.5,208.5 M21.5,227.5 L8.5,242.5 M21.5,227.5 L34.5,242.5 " fill="none" style="stroke:#181818;stroke-width:0.5;"/><text fill="#000000" font-family="sans-serif" font-size="14" lengthAdjust="spacing" textLength="31" x="6" y="256.9951">User</text></g><g id="elem_GMN16"><path d="M909.5,202 L909.5,218 L802.228,222 L909.5,226 L909.5,242.2656 A0,0 0 0 0 909.5,242.2656 L1071.5,242.2656 A0,0 0 0 0 1071.5,242.2656 L1071.5,212 L1061.5,202 L909.5,202 A0,0 0 0 0 909.5,202 " fill="#FEFFDD" style="stroke:#181818;stroke-width:0.5;"/><path d="M1061.5,202 L1061.5,212 L1071.5,212 L1061.5,202 " fill="#FEFFDD" style="stroke:#181818;stroke-width:0.5;"/><text fill="#000000" font-family="sans-serif" font-size="13" lengthAdjust="spacing" textLength="141" x="915.5" y="219.0669">Uses GmailService for</text><text fill="#000000" font-family="sans-serif" font-size="13" lengthAdjust="spacing" textLength="90" x="915.5" y="234.1997">email delivery</text></g><g id="elem_GMN19"><path d="M906.5,116 L906.5,132 L828.24,136 L906.5,140 L906.5,156.2656 A0,0 0 0 0 906.5,156.2656 L1074.5,156.2656 A0,0 0 0 0 1074.5,156.2656 L1074.5,126 L1064.5,116 L906.5,116 A0,0 0 0 0 906.5,116 " fill="#FEFFDD" style="stroke:#181818;stroke-width:0.5;"/><path d="M1064.5,116 L1064.5,126 L1074.5,126 L1064.5,116 " fill="#FEFFDD" style="stroke:#181818;stroke-width:0.5;"/><text fill="#000000" font-family="sans-serif" font-size="13" lengthAdjust="spacing" textLength="147" x="912.5" y="133.0669">Caches login code with</text><text fill="#000000" font-family="sans-serif" font-size="13" lengthAdjust="spacing" textLength="87" x="912.5" y="148.1997">CacheService</text></g><g id="elem_GMN22"><path d="M891,37 L891,53 L767.573,57 L891,61 L891,77.2656 A0,0 0 0 0 891,77.2656 L1090,77.2656 A0,0 0 0 0 1090,77.2656 L1090,47 L1080,37 L891,37 A0,0 0 0 0 891,37 " fill="#FEFFDD" style="stroke:#181818;stroke-width:0.5;"/><path d="M1080,37 L1080,47 L1090,47 L1080,37 " fill="#FEFFDD" style="stroke:#181818;stroke-width:0.5;"/><text fill="#000000" font-family="sans-serif" font-size="13" lengthAdjust="spacing" textLength="147" x="897" y="54.0669">Utilizes UserService for</text><text fill="#000000" font-family="sans-serif" font-size="13" lengthAdjust="spacing" textLength="178" x="897" y="69.1997">user creation and validation</text></g><!--link User to UC1--><g id="link_User_UC1"><path d="M37.0962,222 C60.9121,222 103.62,222 144.927,222 " fill="none" id="User-to-UC1" style="stroke:#181818;stroke-width:1.0;"/><polygon fill="#181818" points="150.927,222,141.927,218,145.927,222,141.927,226,150.927,222" style="stroke:#181818;stroke-width:1.0;"/><text fill="#000000" font-family="sans-serif" font-size="13" lengthAdjust="spacing" textLength="50" x="68" y="218.0669">initiates</text></g><!--link UC1 to UC2--><g id="link_UC1_UC2"><path d="M237.536,238.14 C255.608,257.115 288.33,288.038 323,304 C413.913,345.8558 522.3279,361.2003 601.0269,367.1123 " fill="none" id="UC1-to-UC2" style="stroke:#181818;stroke-width:1.0;"/><polygon fill="#181818" points="607.01,367.5618,598.3349,362.8988,602.024,367.1872,597.7356,370.8764,607.01,367.5618" style="stroke:#181818;stroke-width:1.0;"/><text fill="#000000" font-family="sans-serif" font-size="13" lengthAdjust="spacing" textLength="218" x="324" y="300.0669">validates username, email, phone</text></g><!--link UC1 to UC3--><g id="link_UC1_UC3"><path d="M268.559,234.543 C285.553,238.916 305.07,243.58 323,247 C430.357,267.48 550.5591,281.7718 626.1751,289.7458 " fill="none" id="UC1-to-UC3" style="stroke:#181818;stroke-width:1.0;"/><polygon fill="#181818" points="632.142,290.375,623.6111,285.4532,627.1696,289.8506,622.7721,293.4091,632.142,290.375" style="stroke:#181818;stroke-width:1.0;"/><text fill="#000000" font-family="sans-serif" font-size="13" lengthAdjust="spacing" textLength="112" x="377" y="243.0669">hashes password</text></g><!--link UC1 to UC4--><g id="link_UC1_UC4"><path d="M236.732,205.517 C254.488,185.353 287.388,151.719 323,134 C424.395,83.55 550.8818,66.6115 628.6328,60.6135 " fill="none" id="UC1-to-UC4" style="stroke:#181818;stroke-width:1.0;"/><polygon fill="#181818" points="634.615,60.152,625.334,56.8561,629.6298,60.5366,625.9493,64.8324,634.615,60.152" style="stroke:#181818;stroke-width:1.0;"/><text fill="#000000" font-family="sans-serif" font-size="13" lengthAdjust="spacing" textLength="125" x="370.5" y="67.0669">creates user record</text></g><!--link UC1 to UC5--><g id="link_UC1_UC5"><path d="M269.115,209.607 C285.996,205.3 305.296,200.64 323,197 C413.317,178.428 510.8408,162.8847 586.4218,151.7737 " fill="none" id="UC1-to-UC5" style="stroke:#181818;stroke-width:1.0;"/><polygon fill="#181818" points="592.358,150.901,582.8719,148.2525,587.4112,151.6282,584.0355,156.1675,592.358,150.901" style="stroke:#181818;stroke-width:1.0;"/><text fill="#000000" font-family="sans-serif" font-size="13" lengthAdjust="spacing" textLength="173" x="346.5" y="155.0669">generates email login code</text></g><!--link UC1 to UC6--><g id="link_UC1_UC6"><path d="M293.053,222 C373.765,222 501.038,222 592.842,222 " fill="none" id="UC1-to-UC6" style="stroke:#181818;stroke-width:1.0;"/><polygon fill="#181818" points="598.842,222,589.842,218,593.842,222,589.842,226,598.842,222" style="stroke:#181818;stroke-width:1.0;"/><text fill="#000000" font-family="sans-serif" font-size="13" lengthAdjust="spacing" textLength="77" x="394.5" y="218.0669">sends email</text></g><!--SRC=[VP8_JyCm4CLtVufJ9v2QWVuR65YYgWmCYAhibdD9JgHsPPkKWlZktCMkI8H4fiJlT-_kdTDX7I4wyDIq4IhoQ28vgxI9piCXe0STO2OlCwLEshpf1jCtl6138Nej1R2_X8Z76NmfuESzeD41uIOncAnknUjGtasHL_HKNrAlxOVGrc165rFqKOSMddK8P-UhZ2odIEbHHnotMqs17LhqWZovXcpHaowsHqqTbAwwjbrFI_PeAnZ699FI3XKPtgXlfORfY-91ui4zaAL8t2ImmWT9MB3Gwuug4SJTMtt4EQ2OpU7KEeiZVCbuou6PFUN88tN5gXco9YlWcviIQoQQ73Qa9j19PZ2ST0Hk60mSCKDAMSVhIN-4guU480iDi1DzZxudWr0xp-V9jyAEUlGN9PkIyhycijDI6udpEmMSARPN8Hl_uo5NUOZKqIUxoCgdimnx69OYTwJP9gzR_kYhwmy0]--></g></svg>